<mxfile host="app.diagrams.net" modified="2021-11-10T07:51:42.680Z" agent="5.0 (Windows NT 10.0; Win64; x64) AppleWebKit/537.36 (KHTML, like Gecko) Chrome/95.0.4638.69 Safari/537.36" etag="TQcicF8N7Lbk10Q3un2y" version="15.7.1" type="github">
  <diagram id="nd8UKfVgCPwpMdiLZWaS" name="Page-1">
    <mxGraphModel dx="723" dy="1483" grid="1" gridSize="10" guides="1" tooltips="1" connect="1" arrows="1" fold="1" page="1" pageScale="1" pageWidth="850" pageHeight="1100" math="0" shadow="0">
      <root>
        <mxCell id="0" />
        <mxCell id="1" parent="0" />
        <mxCell id="vUSxJ-LlCXIBKjZNRcNq-9" value="" style="group" vertex="1" connectable="0" parent="1">
          <mxGeometry x="230" y="-420" width="210" height="140" as="geometry" />
        </mxCell>
        <mxCell id="vUSxJ-LlCXIBKjZNRcNq-4" value="" style="rounded=1;whiteSpace=wrap;html=1;align=center;strokeColor=#000033;strokeWidth=2;fillColor=#CCE5FF;" vertex="1" parent="vUSxJ-LlCXIBKjZNRcNq-9">
          <mxGeometry y="30" width="210" height="110" as="geometry" />
        </mxCell>
        <mxCell id="vUSxJ-LlCXIBKjZNRcNq-1" value="&lt;font size=&quot;1&quot;&gt;&lt;span style=&quot;font-size: 18px&quot;&gt;Input Layer&lt;/span&gt;&lt;/font&gt;" style="rounded=1;whiteSpace=wrap;html=1;align=center;fillColor=#E6E6E6;strokeWidth=2;strokeColor=#003333;" vertex="1" parent="vUSxJ-LlCXIBKjZNRcNq-9">
          <mxGeometry width="210" height="50" as="geometry" />
        </mxCell>
        <mxCell id="vUSxJ-LlCXIBKjZNRcNq-2" value="&lt;div style=&quot;text-align: justify ; font-size: 15px&quot;&gt;&lt;b&gt;&lt;font style=&quot;font-size: 15px&quot;&gt;&amp;nbsp;Input Shape&amp;nbsp; &amp;nbsp; : (224×224×3)&lt;/font&gt;&lt;/b&gt;&lt;/div&gt;&lt;div style=&quot;text-align: justify ; font-size: 15px&quot;&gt;&lt;b&gt;&lt;font style=&quot;font-size: 15px&quot;&gt;&amp;nbsp;Output Shape : (224×224×3)&lt;/font&gt;&lt;/b&gt;&lt;/div&gt;" style="rounded=0;whiteSpace=wrap;html=1;align=center;fillColor=none;strokeColor=none;" vertex="1" parent="vUSxJ-LlCXIBKjZNRcNq-9">
          <mxGeometry y="50" width="205" height="80" as="geometry" />
        </mxCell>
        <mxCell id="vUSxJ-LlCXIBKjZNRcNq-8" value="" style="endArrow=none;html=1;rounded=0;fontSize=14;strokeWidth=4;strokeColor=#003333;entryX=1;entryY=1;entryDx=0;entryDy=0;exitX=0;exitY=1;exitDx=0;exitDy=0;" edge="1" parent="vUSxJ-LlCXIBKjZNRcNq-9" source="vUSxJ-LlCXIBKjZNRcNq-1" target="vUSxJ-LlCXIBKjZNRcNq-1">
          <mxGeometry width="50" height="50" relative="1" as="geometry">
            <mxPoint y="40" as="sourcePoint" />
            <mxPoint x="170" y="40" as="targetPoint" />
          </mxGeometry>
        </mxCell>
        <mxCell id="vUSxJ-LlCXIBKjZNRcNq-10" value="" style="group" vertex="1" connectable="0" parent="1">
          <mxGeometry x="500" y="-420" width="210" height="140" as="geometry" />
        </mxCell>
        <mxCell id="vUSxJ-LlCXIBKjZNRcNq-11" value="" style="rounded=1;whiteSpace=wrap;html=1;align=center;strokeColor=#000033;strokeWidth=2;fillColor=#CCE5FF;" vertex="1" parent="vUSxJ-LlCXIBKjZNRcNq-10">
          <mxGeometry y="30" width="210" height="110" as="geometry" />
        </mxCell>
        <mxCell id="vUSxJ-LlCXIBKjZNRcNq-12" value="&lt;font size=&quot;1&quot;&gt;&lt;span style=&quot;font-size: 18px&quot;&gt;TFOpLambda tf.math.truediv&lt;/span&gt;&lt;/font&gt;" style="rounded=1;whiteSpace=wrap;html=1;align=center;fillColor=#D5E8D4;strokeWidth=2;strokeColor=#003333;" vertex="1" parent="vUSxJ-LlCXIBKjZNRcNq-10">
          <mxGeometry width="210" height="50" as="geometry" />
        </mxCell>
        <mxCell id="vUSxJ-LlCXIBKjZNRcNq-13" value="&lt;div style=&quot;text-align: justify ; font-size: 15px&quot;&gt;&lt;b&gt;&lt;font style=&quot;font-size: 15px&quot;&gt;&amp;nbsp;Input Shape&amp;nbsp; &amp;nbsp; : (224×224×3)&lt;/font&gt;&lt;/b&gt;&lt;/div&gt;&lt;div style=&quot;text-align: justify ; font-size: 15px&quot;&gt;&lt;b&gt;&lt;font style=&quot;font-size: 15px&quot;&gt;&amp;nbsp;Output Shape : (224×224×3)&lt;/font&gt;&lt;/b&gt;&lt;/div&gt;" style="rounded=0;whiteSpace=wrap;html=1;align=center;fillColor=none;strokeColor=none;" vertex="1" parent="vUSxJ-LlCXIBKjZNRcNq-10">
          <mxGeometry y="50" width="205" height="80" as="geometry" />
        </mxCell>
        <mxCell id="vUSxJ-LlCXIBKjZNRcNq-14" value="" style="endArrow=none;html=1;rounded=0;fontSize=14;strokeWidth=4;strokeColor=#003333;entryX=1;entryY=1;entryDx=0;entryDy=0;exitX=0;exitY=1;exitDx=0;exitDy=0;" edge="1" parent="vUSxJ-LlCXIBKjZNRcNq-10" source="vUSxJ-LlCXIBKjZNRcNq-12" target="vUSxJ-LlCXIBKjZNRcNq-12">
          <mxGeometry width="50" height="50" relative="1" as="geometry">
            <mxPoint y="40" as="sourcePoint" />
            <mxPoint x="170" y="40" as="targetPoint" />
            <Array as="points">
              <mxPoint x="105" y="50" />
            </Array>
          </mxGeometry>
        </mxCell>
        <mxCell id="vUSxJ-LlCXIBKjZNRcNq-15" value="" style="group" vertex="1" connectable="0" parent="1">
          <mxGeometry x="770" y="-420" width="210" height="140" as="geometry" />
        </mxCell>
        <mxCell id="vUSxJ-LlCXIBKjZNRcNq-16" value="" style="rounded=1;whiteSpace=wrap;html=1;align=center;strokeColor=#000033;strokeWidth=2;fillColor=#CCE5FF;" vertex="1" parent="vUSxJ-LlCXIBKjZNRcNq-15">
          <mxGeometry y="30" width="210" height="110" as="geometry" />
        </mxCell>
        <mxCell id="vUSxJ-LlCXIBKjZNRcNq-17" value="&lt;font size=&quot;1&quot;&gt;&lt;span style=&quot;font-size: 18px&quot;&gt;TFOpLambda tf.math.subtract&lt;/span&gt;&lt;/font&gt;" style="rounded=1;whiteSpace=wrap;html=1;align=center;fillColor=#D5E8D4;strokeWidth=2;strokeColor=#003333;" vertex="1" parent="vUSxJ-LlCXIBKjZNRcNq-15">
          <mxGeometry width="210" height="50" as="geometry" />
        </mxCell>
        <mxCell id="vUSxJ-LlCXIBKjZNRcNq-18" value="&lt;div style=&quot;text-align: justify ; font-size: 15px&quot;&gt;&lt;b&gt;&lt;font style=&quot;font-size: 15px&quot;&gt;&amp;nbsp;Input Shape&amp;nbsp; &amp;nbsp; : (224×224×3)&lt;/font&gt;&lt;/b&gt;&lt;/div&gt;&lt;div style=&quot;text-align: justify ; font-size: 15px&quot;&gt;&lt;b&gt;&lt;font style=&quot;font-size: 15px&quot;&gt;&amp;nbsp;Output Shape : (224×224×3)&lt;/font&gt;&lt;/b&gt;&lt;/div&gt;" style="rounded=0;whiteSpace=wrap;html=1;align=center;fillColor=none;strokeColor=none;" vertex="1" parent="vUSxJ-LlCXIBKjZNRcNq-15">
          <mxGeometry y="50" width="205" height="80" as="geometry" />
        </mxCell>
        <mxCell id="vUSxJ-LlCXIBKjZNRcNq-19" value="" style="endArrow=none;html=1;rounded=0;fontSize=14;strokeWidth=4;strokeColor=#003333;entryX=1;entryY=1;entryDx=0;entryDy=0;exitX=0;exitY=1;exitDx=0;exitDy=0;" edge="1" parent="vUSxJ-LlCXIBKjZNRcNq-15" source="vUSxJ-LlCXIBKjZNRcNq-17" target="vUSxJ-LlCXIBKjZNRcNq-17">
          <mxGeometry width="50" height="50" relative="1" as="geometry">
            <mxPoint y="40" as="sourcePoint" />
            <mxPoint x="170" y="40" as="targetPoint" />
          </mxGeometry>
        </mxCell>
        <mxCell id="vUSxJ-LlCXIBKjZNRcNq-20" value="" style="group" vertex="1" connectable="0" parent="1">
          <mxGeometry x="1040" y="-420" width="210" height="140" as="geometry" />
        </mxCell>
        <mxCell id="vUSxJ-LlCXIBKjZNRcNq-21" value="" style="rounded=1;whiteSpace=wrap;html=1;align=center;strokeColor=#000033;strokeWidth=2;fillColor=#CCE5FF;" vertex="1" parent="vUSxJ-LlCXIBKjZNRcNq-20">
          <mxGeometry y="30" width="210" height="110" as="geometry" />
        </mxCell>
        <mxCell id="vUSxJ-LlCXIBKjZNRcNq-22" value="&lt;span style=&quot;font-size: 18px&quot;&gt;Functional&lt;br&gt;mobilenetv2&lt;/span&gt;" style="rounded=1;whiteSpace=wrap;html=1;align=center;fillColor=#FFE6CC;strokeWidth=2;strokeColor=#003333;" vertex="1" parent="vUSxJ-LlCXIBKjZNRcNq-20">
          <mxGeometry width="210" height="50" as="geometry" />
        </mxCell>
        <mxCell id="vUSxJ-LlCXIBKjZNRcNq-23" value="&lt;div style=&quot;text-align: justify ; font-size: 15px&quot;&gt;&lt;b&gt;&lt;font style=&quot;font-size: 15px&quot;&gt;&amp;nbsp;Input Shape&amp;nbsp; &amp;nbsp; : (224×224×3)&lt;/font&gt;&lt;/b&gt;&lt;/div&gt;&lt;div style=&quot;text-align: justify ; font-size: 15px&quot;&gt;&lt;b&gt;&lt;font style=&quot;font-size: 15px&quot;&gt;&amp;nbsp;Output Shape : (7×7×1280)&lt;/font&gt;&lt;/b&gt;&lt;/div&gt;" style="rounded=0;whiteSpace=wrap;html=1;align=center;fillColor=none;strokeColor=none;" vertex="1" parent="vUSxJ-LlCXIBKjZNRcNq-20">
          <mxGeometry y="50" width="205" height="80" as="geometry" />
        </mxCell>
        <mxCell id="vUSxJ-LlCXIBKjZNRcNq-24" value="" style="endArrow=none;html=1;rounded=0;fontSize=14;strokeWidth=4;strokeColor=#003333;entryX=1;entryY=1;entryDx=0;entryDy=0;exitX=0;exitY=1;exitDx=0;exitDy=0;" edge="1" parent="vUSxJ-LlCXIBKjZNRcNq-20" source="vUSxJ-LlCXIBKjZNRcNq-22" target="vUSxJ-LlCXIBKjZNRcNq-22">
          <mxGeometry width="50" height="50" relative="1" as="geometry">
            <mxPoint y="40" as="sourcePoint" />
            <mxPoint x="170" y="40" as="targetPoint" />
          </mxGeometry>
        </mxCell>
        <mxCell id="vUSxJ-LlCXIBKjZNRcNq-25" value="" style="group" vertex="1" connectable="0" parent="1">
          <mxGeometry x="1300" y="-420" width="210" height="140" as="geometry" />
        </mxCell>
        <mxCell id="vUSxJ-LlCXIBKjZNRcNq-26" value="" style="rounded=1;whiteSpace=wrap;html=1;align=center;strokeColor=#000033;strokeWidth=2;fillColor=#CCE5FF;" vertex="1" parent="vUSxJ-LlCXIBKjZNRcNq-25">
          <mxGeometry y="30" width="210" height="110" as="geometry" />
        </mxCell>
        <mxCell id="vUSxJ-LlCXIBKjZNRcNq-27" value="&lt;font style=&quot;font-size: 18px&quot;&gt;GlobalAveragePooling2D&lt;/font&gt;" style="rounded=1;whiteSpace=wrap;html=1;align=center;fillColor=#CCFFCC;strokeWidth=2;strokeColor=#003333;" vertex="1" parent="vUSxJ-LlCXIBKjZNRcNq-25">
          <mxGeometry width="210" height="50" as="geometry" />
        </mxCell>
        <mxCell id="vUSxJ-LlCXIBKjZNRcNq-28" value="&lt;div style=&quot;text-align: justify ; font-size: 15px&quot;&gt;&lt;b&gt;&lt;font style=&quot;font-size: 15px&quot;&gt;&amp;nbsp;Input Shape&amp;nbsp; &amp;nbsp; : (7×7×1280)&lt;/font&gt;&lt;/b&gt;&lt;/div&gt;&lt;div style=&quot;text-align: justify ; font-size: 15px&quot;&gt;&lt;b&gt;&lt;font style=&quot;font-size: 15px&quot;&gt;&amp;nbsp;Output Shape : (1280)&lt;/font&gt;&lt;/b&gt;&lt;/div&gt;" style="rounded=0;whiteSpace=wrap;html=1;align=center;fillColor=#CCE5FF;strokeColor=none;" vertex="1" parent="vUSxJ-LlCXIBKjZNRcNq-25">
          <mxGeometry x="5" y="50" width="200" height="80" as="geometry" />
        </mxCell>
        <mxCell id="vUSxJ-LlCXIBKjZNRcNq-29" value="" style="endArrow=none;html=1;rounded=0;fontSize=14;strokeWidth=4;strokeColor=#003333;entryX=1;entryY=1;entryDx=0;entryDy=0;exitX=0;exitY=1;exitDx=0;exitDy=0;" edge="1" parent="vUSxJ-LlCXIBKjZNRcNq-25" source="vUSxJ-LlCXIBKjZNRcNq-27" target="vUSxJ-LlCXIBKjZNRcNq-27">
          <mxGeometry width="50" height="50" relative="1" as="geometry">
            <mxPoint y="40" as="sourcePoint" />
            <mxPoint x="170" y="40" as="targetPoint" />
          </mxGeometry>
        </mxCell>
        <mxCell id="vUSxJ-LlCXIBKjZNRcNq-30" value="" style="group" vertex="1" connectable="0" parent="1">
          <mxGeometry x="1570" y="-420" width="210" height="140" as="geometry" />
        </mxCell>
        <mxCell id="vUSxJ-LlCXIBKjZNRcNq-31" value="" style="rounded=1;whiteSpace=wrap;html=1;align=center;strokeColor=#000033;strokeWidth=2;fillColor=#CCE5FF;" vertex="1" parent="vUSxJ-LlCXIBKjZNRcNq-30">
          <mxGeometry y="30" width="210" height="110" as="geometry" />
        </mxCell>
        <mxCell id="vUSxJ-LlCXIBKjZNRcNq-32" value="&lt;font size=&quot;1&quot;&gt;&lt;span style=&quot;font-size: 18px&quot;&gt;Droput&lt;/span&gt;&lt;/font&gt;" style="rounded=1;whiteSpace=wrap;html=1;align=center;fillColor=#CCCCFF;strokeWidth=2;strokeColor=#003333;" vertex="1" parent="vUSxJ-LlCXIBKjZNRcNq-30">
          <mxGeometry width="210" height="50" as="geometry" />
        </mxCell>
        <mxCell id="vUSxJ-LlCXIBKjZNRcNq-33" value="&lt;div style=&quot;text-align: justify ; font-size: 15px&quot;&gt;&lt;b&gt;&lt;font style=&quot;font-size: 15px&quot;&gt;&amp;nbsp;Input Shape&amp;nbsp; &amp;nbsp; : (1280)&lt;/font&gt;&lt;/b&gt;&lt;/div&gt;&lt;div style=&quot;text-align: justify ; font-size: 15px&quot;&gt;&lt;b&gt;&lt;font style=&quot;font-size: 15px&quot;&gt;&amp;nbsp;Output Shape : (1280)&lt;/font&gt;&lt;/b&gt;&lt;/div&gt;" style="rounded=0;whiteSpace=wrap;html=1;align=center;fillColor=#CCE5FF;strokeColor=none;" vertex="1" parent="vUSxJ-LlCXIBKjZNRcNq-30">
          <mxGeometry x="5" y="50" width="200" height="80" as="geometry" />
        </mxCell>
        <mxCell id="vUSxJ-LlCXIBKjZNRcNq-34" value="" style="endArrow=none;html=1;rounded=0;fontSize=14;strokeWidth=4;strokeColor=#003333;entryX=1;entryY=1;entryDx=0;entryDy=0;exitX=0;exitY=1;exitDx=0;exitDy=0;" edge="1" parent="vUSxJ-LlCXIBKjZNRcNq-30" source="vUSxJ-LlCXIBKjZNRcNq-32" target="vUSxJ-LlCXIBKjZNRcNq-32">
          <mxGeometry width="50" height="50" relative="1" as="geometry">
            <mxPoint y="40" as="sourcePoint" />
            <mxPoint x="170" y="40" as="targetPoint" />
          </mxGeometry>
        </mxCell>
        <mxCell id="vUSxJ-LlCXIBKjZNRcNq-35" value="" style="group" vertex="1" connectable="0" parent="1">
          <mxGeometry x="1840" y="-420" width="210" height="140" as="geometry" />
        </mxCell>
        <mxCell id="vUSxJ-LlCXIBKjZNRcNq-36" value="" style="rounded=1;whiteSpace=wrap;html=1;align=center;strokeColor=#000033;strokeWidth=2;fillColor=#CCE5FF;" vertex="1" parent="vUSxJ-LlCXIBKjZNRcNq-35">
          <mxGeometry y="30" width="210" height="110" as="geometry" />
        </mxCell>
        <mxCell id="vUSxJ-LlCXIBKjZNRcNq-37" value="&lt;font size=&quot;1&quot;&gt;&lt;span style=&quot;font-size: 18px&quot;&gt;Dense&lt;/span&gt;&lt;/font&gt;" style="rounded=1;whiteSpace=wrap;html=1;align=center;fillColor=#E6E6E6;strokeWidth=2;strokeColor=#003333;" vertex="1" parent="vUSxJ-LlCXIBKjZNRcNq-35">
          <mxGeometry width="210" height="50" as="geometry" />
        </mxCell>
        <mxCell id="vUSxJ-LlCXIBKjZNRcNq-38" value="&lt;div style=&quot;text-align: justify ; font-size: 15px&quot;&gt;&lt;b&gt;&lt;font style=&quot;font-size: 15px&quot;&gt;&amp;nbsp;Input Shape&amp;nbsp; &amp;nbsp; : (1280)&lt;/font&gt;&lt;/b&gt;&lt;/div&gt;&lt;div style=&quot;text-align: justify ; font-size: 15px&quot;&gt;&lt;b&gt;&lt;font style=&quot;font-size: 15px&quot;&gt;&amp;nbsp;Output Shape : (3)&lt;/font&gt;&lt;/b&gt;&lt;/div&gt;" style="rounded=0;whiteSpace=wrap;html=1;align=center;fillColor=#CCE5FF;strokeColor=none;" vertex="1" parent="vUSxJ-LlCXIBKjZNRcNq-35">
          <mxGeometry x="5" y="50" width="200" height="80" as="geometry" />
        </mxCell>
        <mxCell id="vUSxJ-LlCXIBKjZNRcNq-39" value="" style="endArrow=none;html=1;rounded=0;fontSize=14;strokeWidth=4;strokeColor=#003333;entryX=1;entryY=1;entryDx=0;entryDy=0;exitX=0;exitY=1;exitDx=0;exitDy=0;" edge="1" parent="vUSxJ-LlCXIBKjZNRcNq-35" source="vUSxJ-LlCXIBKjZNRcNq-37" target="vUSxJ-LlCXIBKjZNRcNq-37">
          <mxGeometry width="50" height="50" relative="1" as="geometry">
            <mxPoint y="40" as="sourcePoint" />
            <mxPoint x="170" y="40" as="targetPoint" />
          </mxGeometry>
        </mxCell>
        <mxCell id="vUSxJ-LlCXIBKjZNRcNq-41" value="" style="endArrow=classic;html=1;rounded=0;fontSize=14;strokeColor=#330033;strokeWidth=2;shadow=1;" edge="1" parent="1">
          <mxGeometry width="50" height="50" relative="1" as="geometry">
            <mxPoint x="1780" y="-340" as="sourcePoint" />
            <mxPoint x="1840" y="-340" as="targetPoint" />
          </mxGeometry>
        </mxCell>
        <mxCell id="vUSxJ-LlCXIBKjZNRcNq-42" value="" style="endArrow=classic;html=1;rounded=0;fontSize=14;strokeColor=#330033;strokeWidth=2;shadow=1;" edge="1" parent="1">
          <mxGeometry width="50" height="50" relative="1" as="geometry">
            <mxPoint x="1510" y="-340" as="sourcePoint" />
            <mxPoint x="1570" y="-340" as="targetPoint" />
          </mxGeometry>
        </mxCell>
        <mxCell id="vUSxJ-LlCXIBKjZNRcNq-43" value="" style="endArrow=classic;html=1;rounded=0;fontSize=14;strokeColor=#330033;strokeWidth=2;shadow=1;" edge="1" parent="1">
          <mxGeometry width="50" height="50" relative="1" as="geometry">
            <mxPoint x="1250" y="-340" as="sourcePoint" />
            <mxPoint x="1300" y="-340" as="targetPoint" />
          </mxGeometry>
        </mxCell>
        <mxCell id="vUSxJ-LlCXIBKjZNRcNq-44" value="" style="endArrow=classic;html=1;rounded=0;fontSize=14;strokeColor=#330033;strokeWidth=2;shadow=1;" edge="1" parent="1">
          <mxGeometry width="50" height="50" relative="1" as="geometry">
            <mxPoint x="980" y="-340" as="sourcePoint" />
            <mxPoint x="1040" y="-340" as="targetPoint" />
          </mxGeometry>
        </mxCell>
        <mxCell id="vUSxJ-LlCXIBKjZNRcNq-45" value="" style="endArrow=classic;html=1;rounded=0;fontSize=14;strokeColor=#330033;strokeWidth=2;shadow=1;" edge="1" parent="1">
          <mxGeometry width="50" height="50" relative="1" as="geometry">
            <mxPoint x="710" y="-340" as="sourcePoint" />
            <mxPoint x="770" y="-340" as="targetPoint" />
          </mxGeometry>
        </mxCell>
        <mxCell id="vUSxJ-LlCXIBKjZNRcNq-46" value="" style="endArrow=classic;html=1;rounded=0;fontSize=14;strokeColor=#330033;strokeWidth=2;shadow=1;" edge="1" parent="1">
          <mxGeometry width="50" height="50" relative="1" as="geometry">
            <mxPoint x="440" y="-340" as="sourcePoint" />
            <mxPoint x="500" y="-340" as="targetPoint" />
          </mxGeometry>
        </mxCell>
      </root>
    </mxGraphModel>
  </diagram>
</mxfile>
